<svg width="15" height="16" xmlns="http://www.w3.org/2000/svg" class="logIcon___craLw" viewBox="0 0 15 16">
<title>编组</title>
<g fill="#025B52" fill-rule="nonzero">
<path d="M8.484 15.023H.577A.608.608 0 0 1 0 14.394V1.615A.608.608 0 0 1 .577.986h11.108c.33.015.587.295.576.63v6.403h-.93V2H.959v12.084h6.595l.93.996v-.057Z">
</path>
<path d="M3.266 0h.28c.194 0 .353.16.353.357V2.63a.365.365 0 0 1-.354.366h-.279a.36.36 0 0 1-.257-.107.368.368 0 0 1-.106-.259V.394a.359.359 0 0 1 .089-.277A.35.35 0 0 1 3.256 0h.01Zm5.962 0h.28a.351.351 0 0 1 .255.101c.069.068.107.16.107.256V2.63a.364.364 0 0 1-.362.366h-.28a.365.365 0 0 1-.353-.366V.394a.359.359 0 0 1 .09-.277A.35.35 0 0 1 9.227 0Zm1.055 12.957V9.634c0-.265.213-.48.475-.48s.475.215.475.48v2.375h1.414c.125 0 .244.051.332.141.087.09.135.212.133.338a.472.472 0 0 1-.137.332.462.462 0 0 1-.328.137h-2.364Z">
</path>
<path d="M10.833 7.579c1.489 0 2.864.803 3.609 2.105a4.249 4.249 0 0 1 0 4.21A4.159 4.159 0 0 1 10.833 16c-2.3 0-4.166-1.885-4.166-4.21 0-2.326 1.865-4.211 4.166-4.211Zm0 1.01c-1.748 0-3.166 1.433-3.166 3.2 0 1.768 1.418 3.2 3.166 3.2 1.75 0 3.167-1.432 3.167-3.2 0-1.767-1.418-3.2-3.167-3.2Z">
</path>
</g>
</svg>
