<?xml version="1.0" encoding="UTF-8"?>
<svg width="12px" height="12px" viewBox="0 0 12 12" version="1.1" xmlns="http://www.w3.org/2000/svg" xmlns:xlink="http://www.w3.org/1999/xlink">
    <title>编组 6</title>
    <g id="资讯" stroke="none" stroke-width="1" fill="none" fill-rule="evenodd">
        <g id="资讯中心管理备份" transform="translate(-1436, -560)">
            <g id="画板备份-8-+-画板备份-9-+-画板备份-10-+-画板备份-11-+-画板备份-12蒙版" transform="translate(270, 28)">
                <g id="编组-11" transform="translate(1154, 518)">
                    <g id="编组-6" transform="translate(12, 14)">
                        <rect id="矩形" fill="#FFFFFF" opacity="0" x="0" y="0" width="12" height="12"></rect>
                        <g id="ICON/通用/重复信息提示">
                            <rect id="矩形" x="0" y="0" width="12" height="12"></rect>
                            <path d="M6,0 C9.29999349,0 12,2.70000343 12,6 C12,9.30001029 9.29999349,12 6,12 C2.69999281,12 0,9.29999657 0,5.9999863 C0,2.70000343 2.69999281,0 6,0 L6,0 Z M6.86126335,7.71569773 L5.14766111,7.71569773 L5.14766111,9.42929801 L6.86126335,9.42929801 L6.86126335,7.71569773 Z M6.86126335,2.56975609 L5.14766111,2.56975609 L5.14766111,6.86575198 L6.86126335,6.86575198 L6.86126335,2.56975609 Z" id="形状备份" fill="#24D4C9" fill-rule="nonzero"></path>
                        </g>
                    </g>
                </g>
            </g>
        </g>
    </g>
</svg>