<?xml version="1.0" encoding="UTF-8"?>
<svg width="18px" height="18px" viewBox="0 0 18 18" version="1.1" xmlns="http://www.w3.org/2000/svg" xmlns:xlink="http://www.w3.org/1999/xlink">
    <title>形状结合 2</title>
    <g id="课程频道" stroke="none" stroke-width="1" fill="none" fill-rule="evenodd">
        <g id="课程详情" transform="translate(-1797, -535)" fill="#025B52">
            <g id="编组-3备份-2" transform="translate(1797, 532)">
                <path d="M9,3 C13.9705627,3 18,7.02943725 18,12 C18,16.9705627 13.9705627,21 9,21 C4.02943725,21 0,16.9705627 0,12 C0,7.02943725 4.02943725,3 9,3 Z M7.5,8.85318573 C7.08578644,8.85318573 6.75,9.18897217 6.75,9.60318573 L6.75,14.3968143 C6.75,14.5373791 6.78950208,14.6751148 6.86400127,14.7943135 C7.08353402,15.1455659 7.54624681,15.2523457 7.89749921,15.032813 L11.732402,12.6359987 C11.8289789,12.5756382 11.910541,12.4940761 11.9709016,12.3974992 C12.1904343,12.0462468 12.0836544,11.583534 11.732402,11.3640013 L7.89749921,8.967187 C7.7783005,8.89268781 7.64056479,8.85318573 7.5,8.85318573 Z" id="形状结合"></path>
            </g>
        </g>
    </g>
</svg>