<?xml version="1.0" encoding="UTF-8"?>
<svg width="20px" height="20px" viewBox="0 0 20 20" version="1.1" xmlns="http://www.w3.org/2000/svg" xmlns:xlink="http://www.w3.org/1999/xlink">
    <title>NZD新西兰</title>
    <g id="NZD新西兰" stroke="none" stroke-width="1" fill="none" fill-rule="evenodd">
        <g id="编组" fill-rule="nonzero">
            <path d="M20,10 C20,15.5227273 15.5227273,20 10,20 C4.4772727,20 0,15.5227273 0,10 C0,10.0018182 10,0 10,0 C15.5227273,0 20,4.47636363 20,10 Z" id="路径" fill="#0052B4"></path>
            <polygon id="路径" fill="#F0F0F0" points="9.97363636 10.1109091 10.0736364 10.1109091 10.0736364 10.0109091"></polygon>
            <path d="M10,5.25636364 L10,0.0381818173 L9.99909089,0.0381818173 C4.47636363,0.0400000098 0,4.51727273 0,10.0381818 L5.21818181,10.0381818 L5.21818181,7.10181818 L8.15545455,10.0381818 L9.97363636,10.0381818 L10.0009091,10.0109091 L10.0009091,8.19272727 L7.06181817,5.25636364 L9.99909089,5.25636364 L10,5.25636364 Z" id="路径" fill="#F0F0F0"></path>
            <path d="M5.06,1.34272728 C3.4941411,2.2348253 2.19702254,3.53162987 1.30454544,5.09727274 L1.30454544,10.0381818 L3.91363636,10.0381818 L3.91363636,3.95181818 L9.99999999,3.95181818 L9.99999999,1.34272728 L5.06,1.34272728 Z" id="路径" fill="#D80027"></path>
            <path d="M10.0009091,8.80909092 L6.44727273,5.25545455 L5.21818181,5.25545455 L9.99999999,10.0381818 L9.99999999,8.80909092 L10.0009091,8.80909092 Z M17.3181818,7.45909092 L17.5336363,8.12272727 L18.2318182,8.12272727 L17.6672727,8.53363638 L17.8827273,9.19727273 L17.3181818,8.78818183 L16.7527273,9.19727273 L16.9681818,8.53363638 L16.4036364,8.12363637 L17.1018182,8.12363637 L17.3181818,7.45909092 L17.3181818,7.45909092 Z M14.8209091,12.2409091 L15.1445454,13.2381818 L16.1927273,13.2381818 L15.3454545,13.8536364 L15.6690909,14.85 L14.8209091,14.2345455 L13.9736364,14.85 L14.2972727,13.8536364 L13.45,13.2381818 L14.4972727,13.2381818 L14.8209091,12.2409091 L14.8209091,12.2409091 Z M14.9154545,4.41545455 L15.1854545,5.24545455 L16.0581818,5.24545455 L15.3518182,5.75909092 L15.6218182,6.58909092 L14.9154545,6.07636365 L14.2090909,6.58909092 L14.4790909,5.75909092 L13.7727273,5.24545455 L14.6454545,5.24545455 L14.9154545,4.41545455 L14.9154545,4.41545455 Z M12.5127273,7.42909092 L12.8363636,8.42545456 L13.8845455,8.42545456 L13.0372727,9.0409091 L13.3609091,10.0372727 L12.5127273,9.42181819 L11.6654545,10.0372727 L11.9890909,9.0409091 L11.1418182,8.42545456 L12.1890909,8.42545456 L12.5127273,7.42909092 L12.5127273,7.42909092 Z" id="形状" fill="#D80027"></path>
        </g>
    </g>
</svg>